<?xml version="1.0" standalone="no"?><!DOCTYPE svg PUBLIC "-//W3C//DTD SVG 1.1//EN" "http://www.w3.org/Graphics/SVG/1.1/DTD/svg11.dtd"><svg t="1577242218787" class="icon" viewBox="0 0 1560 1024" version="1.1" xmlns="http://www.w3.org/2000/svg" p-id="2834" xmlns:xlink="http://www.w3.org/1999/xlink" width="304.6875" height="200"><defs><style type="text/css"></style></defs><path d="M1396.544916 727.22987H1131.419863a135.466938 135.466938 0 0 0 10.230463-51.715858 135.596986 135.596986 0 0 0-11.2275-54.056726h116.783338c90.600288 0 164.034205-66.411311 164.034205-148.341716s-73.433918-148.341715-164.034205-148.341715h-160.522903a137.721107 137.721107 0 0 0 26.789942-81.236813C1113.473203 161.649987 1040.039285 95.368724 949.352299 95.368724H164.034205C73.433918 95.368724 0 161.649987 0 243.580391 0 325.467446 73.433918 391.878757 164.034205 391.878757h160.609602a137.721107 137.721107 0 0 0-26.789942 81.236813 135.596986 135.596986 0 0 0 11.2275 54.056727H192.341377c-90.600288 0-164.034205 66.411311-164.034206 148.341715s73.433918 148.341715 164.034206 148.341716h264.995004a135.466938 135.466938 0 0 0-10.230463 51.802557c0 81.930404 73.433918 148.341715 164.034206 148.341715h785.404792c90.600288 0 164.034205-66.411311 164.034205-148.341715 0-82.017103-73.433918-148.428414-164.034205-148.428415z" fill="#E3F3F7" p-id="2835"></path><path d="M397.817628 170.883414a39.664719 39.664719 0 1 1 39.664719-39.66472 39.57802 39.57802 0 0 1-39.664719 39.66472z m0-61.035984a21.371264 21.371264 0 1 0 21.371264 21.371264 21.67471 21.67471 0 0 0-21.371264-21.371264z m817.743459-30.344594a39.664719 39.664719 0 1 1 39.664719-39.664719 39.57802 39.57802 0 0 1-39.664719 39.664719z m0-61.035983a21.67471 21.67471 0 0 0-21.371264 21.371264 21.371264 21.371264 0 0 0 42.699179 0 21.67471 21.67471 0 0 0-21.371264-21.371264z m-429.636102 32.338667h-18.900347v-19.073745a9.146728 9.146728 0 1 0-18.293455 0v18.900348h-18.900347a9.146728 9.146728 0 1 0 0 18.293455h18.900347v18.900347a9.146728 9.146728 0 1 0 18.293455 0v-18.856998h18.900347a9.363475 9.363475 0 0 0 9.146728-9.146727 8.97333 8.97333 0 0 0-9.146728-9.146728zM262.957582 584.610279H244.057235v-18.900348a9.146728 9.146728 0 0 0-18.293455 0v18.900348h-19.507239a9.146728 9.146728 0 1 0 0 18.293455h18.900347v18.900347a9.146728 9.146728 0 1 0 18.293455 0v-18.900347h18.900347a9.406824 9.406824 0 0 0 9.146728-9.01668 8.669884 8.669884 0 0 0-8.669884-9.146727zM1396.19812 325.12065h-18.900347v-18.770299a9.146728 9.146728 0 1 0-18.293455 0V325.12065h-18.900347a9.146728 9.146728 0 0 0 0 18.293455h18.900347v18.900348a9.146728 9.146728 0 1 0 18.293455 0v-18.72695h18.900347a9.406824 9.406824 0 0 0 9.146728-9.146727 8.97333 8.97333 0 0 0-9.146728-9.320126z m0 0" fill="#EEB5C9" p-id="2836"></path><path d="M612.700703 771.186182l545.032258-63.550249a55.573956 55.573956 0 0 0 55.400559-55.443909v-189.133519c0-26.703243-15.215646-55.400559-48.63805-55.400559h-660.211667l108.37355 363.744983z m0 0" fill="#F0D55E" p-id="2837"></path><path d="M612.13716 772.313267L502.853272 406.400813h661.685548c34.115994 0 49.678435 29.434256 49.678435 56.354246v189.220218a56.614343 56.614343 0 0 1-56.354246 56.354246z m-106.466175-363.831682l107.810007 361.447464L1157.429515 706.595547a54.620269 54.620269 0 0 0 54.316823-54.403523V462.971806c0-26.009652-14.868851-54.360173-47.684362-54.360173z m0 0" fill="#F6CDCD" p-id="2838"></path><path d="M1197.614427 853.463382a7.412751 7.412751 0 0 1-5.028532-2.080773 7.326052 7.326052 0 0 1-2.080773-5.028532v-2.904411a55.227161 55.227161 0 0 0-52.582846-52.452799h-2.861062a7.152654 7.152654 0 1 1 0-14.305308h2.514266a69.835916 69.835916 0 0 1 67.191602 67.668444v1.777327a7.152654 7.152654 0 0 1-7.152655 7.152654zM1244.47515 835.950216a7.196004 7.196004 0 0 1-7.152654-7.152654v-3.03446a55.140462 55.140462 0 0 0-52.496148-52.366099h-2.861061a7.412751 7.412751 0 0 1-5.028533-2.124122 7.152654 7.152654 0 0 1 5.028533-12.224536h2.687664a69.922615 69.922615 0 0 1 67.23495 68.058589v1.733977a7.412751 7.412751 0 0 1-2.124121 5.028533 7.196004 7.196004 0 0 1-5.028533 2.080772z m0 0M741.838625 637.236474a7.4561 7.4561 0 0 1-6.459064-3.72805l-77.205317-133.73296a7.4561 7.4561 0 1 1 13.004826-7.456101l77.205317 133.732961a7.4561 7.4561 0 0 1-6.459063 11.18415z m0 0M865.731267 629.997121a7.4561 7.4561 0 0 1-6.459063-3.72805l-77.248667-133.732961a7.4561 7.4561 0 0 1 13.004826-7.499449l77.248667 133.732961a7.4561 7.4561 0 0 1-6.459064 11.18415z m0 0M989.62391 622.541021a7.4561 7.4561 0 0 1-6.459064-3.72805L906.002879 485.08001a7.4561 7.4561 0 1 1 13.004826-7.4561L996.082973 611.226822a7.49945 7.49945 0 0 1-6.459063 11.184151z m0 0" fill="#3A3A3A" p-id="2839"></path><path d="M1116.204216 366.302599H451.614258l-41.225299-138.718144h-136.117178a7.152654 7.152654 0 0 0 0 14.348658h125.236474l176.518838 592.02303-0.910337 1.517229a75.644738 75.644738 0 1 0 138.718144 50.415376l0.476843-3.381255H1001.371603l0.476843 3.381255a75.51469 75.51469 0 1 0 0-21.154517l-0.476843 3.381255h-287.146559l-0.476843-3.381255a75.644738 75.644738 0 0 0-122.245365-48.074507l-4.334942 3.684701-18.553551-62.163069 540.914063-63.030056h0.216747a70.052663 70.052663 0 0 0 69.359072-69.359072V436.095166c0-40.488358-26.313098-69.792566-62.81331-69.792567z m-39.62137 448.102955A61.122682 61.122682 0 1 1 1015.590213 875.658285a61.122682 61.122682 0 0 1 60.992633-61.122683zM595.881128 832.308865a61.079333 61.079333 0 1 1-13.264923 66.584709 60.905935 60.905935 0 0 1 13.264923-66.584709z m568.744391-206.906782a55.573956 55.573956 0 0 1-55.140463 55.400559l-545.118957 63.593599-108.37355-363.744984h660.211667c33.422403 0 48.638049 28.697316 48.63805 55.400559z m0 0" fill="#3A3A3A" p-id="2840"></path></svg>