<?xml version="1.0" standalone="no"?><!DOCTYPE svg PUBLIC "-//W3C//DTD SVG 1.1//EN" "http://www.w3.org/Graphics/SVG/1.1/DTD/svg11.dtd"><svg t="1576983655108" class="icon" viewBox="0 0 1024 1024" version="1.1" xmlns="http://www.w3.org/2000/svg" p-id="10392" xmlns:xlink="http://www.w3.org/1999/xlink" width="200" height="200"><defs><style type="text/css"></style></defs><path d="M645.579 317.162c0 27.815 22.589 50.405 50.399 50.405 27.815 0 50.406-22.59 50.406-50.405 0-27.812-22.591-50.405-50.406-50.405-27.81 0-50.399 22.594-50.399 50.405z" p-id="10393" fill="#d81e06"></path><path d="M590.699 804.554H112.507v-604.85h705.66v288.04c17.92 3.652 34.863 8.857 50.404 17.419V199.704c0-27.816-22.594-50.405-50.404-50.405h-705.66c-27.815 0-50.405 22.589-50.405 50.405v604.85c0 27.815 22.59 50.404 50.405 50.404h526.677c-22.972-14.006-32.256-29.412-48.485-50.404z" p-id="10394" fill="#d81e06"></path><path d="M868.571 537.791a178.064 178.064 0 0 0-50.404-18.544 180.047 180.047 0 0 0-36.005-3.618c-37.291 0-71.921 11.387-100.611 30.866l-43.668-58.226c-15.844-21.065-40.863-32.136-67.325-29.885-23.135 2.163-43.475 14.402-56.079 33.393l-84.334-112.51c-14.763-19.619-38.166-32.491-62.645-30.242-24.484 0.721-47.166 13.321-60.756 33.666L144.638 625.893c-7.74 11.518-4.588 27.182 7.024 34.922 4.227 2.877 9.088 4.228 13.949 4.228a25.22 25.22 0 0 0 20.973-11.252l162.014-243.108c4.588-6.931 11.971-10.983 20.251-11.251 7.92-0.18 15.932 3.419 20.88 10.082l108.55 144.732c5.221 7.02 13.681 10.438 22.414 9.989 8.642-0.812 16.38-6.028 20.252-13.861l13.949-27.902c5.67-11.339 16.112-13.5 20.252-13.862 4.232-0.36 14.851-0.269 22.414 9.902l46.519 62.025c-25.762 31.052-41.253 70.931-41.253 114.433 0 41.271 13.948 79.278 37.378 109.585 16.229 20.992 37.005 38.288 60.86 50.404 24.356 12.371 51.912 19.349 81.099 19.349 99.048 0 179.34-80.293 179.34-179.338-0.001-67.719-37.535-126.66-92.932-157.179z m0 252.568c-22.841 20.703-53.15 33.317-86.409 33.317-24.767 0-47.895-7.001-67.525-19.123-36.712-22.672-61.183-63.267-61.183-109.585 0-26.807 8.197-51.696 22.218-72.305a129.408 129.408 0 0 1 36.31-35.597c20.186-13.155 44.288-20.809 70.181-20.809 12.499 0 24.579 1.79 36.005 5.111 18.978 5.519 36.146 15.284 50.404 28.207 25.981 23.549 42.302 57.563 42.302 95.392-0.001 37.828-16.321 71.844-42.303 95.392z" p-id="10395" fill="#d81e06"></path><path d="M782.162 775.978m-25.506 0a25.506 25.506 0 1 0 51.012 0 25.506 25.506 0 1 0-51.012 0Z" p-id="10396" fill="#d81e06"></path><path d="M782.162 596.405c-18.021 0-32.629 14.609-32.629 32.631 0 18.021 14.608 97.888 32.629 97.888 18.022 0 32.632-79.867 32.632-97.888s-14.609-32.631-32.632-32.631z" p-id="10397" fill="#d81e06"></path></svg>